<svg width="104" height="112" viewBox="0 0 104 112" fill="none" xmlns="http://www.w3.org/2000/svg">
<rect x="0.5" y="0.5" width="103" height="111" rx="4.5" stroke="#9747FF" stroke-dasharray="10 5"/>
<path d="M78.6668 56H62.6668L57.3335 64H46.6668L41.3335 56H25.3335" stroke="#5C5F6A" stroke-width="2" stroke-linecap="round" stroke-linejoin="round"/>
<path d="M34.5335 37.6267L25.3335 56V72C25.3335 73.4145 25.8954 74.771 26.8956 75.7712C27.8958 76.7714 29.2523 77.3333 30.6668 77.3333H73.3335C74.748 77.3333 76.1045 76.7714 77.1047 75.7712C78.1049 74.771 78.6668 73.4145 78.6668 72V56L69.4668 37.6267C69.0253 36.7381 68.3446 35.9903 67.5014 35.4674C66.6581 34.9445 65.6857 34.6672 64.6935 34.6667H39.3068C38.3146 34.6672 37.3422 34.9445 36.4989 35.4674C35.6557 35.9903 34.975 36.7381 34.5335 37.6267Z" stroke="#5C5F6A" stroke-width="2" stroke-linecap="round" stroke-linejoin="round"/>
</svg>
